<?xml version="1.0" encoding="utf-8"?>
<svg version="1.1"
	 xmlns="http://www.w3.org/2000/svg" xmlns:xlink="http://www.w3.org/1999/xlink"
	 x="0px" y="0px" width="16px" height="16px" viewBox="0 0 16 16" enable-background="new 0 0 16 16" xml:space="preserve">
<defs>
</defs>
<g>
	<polygon fill="#CCCCCC" points="1.191,7.149 7.963,5.094 14.803,6.986 7.996,9.601 	"/>
	<path fill="#FFFFFF" d="M7.968,5.484l5.639,1.56L7.992,9.201l-5.61-2.022L7.968,5.484 M7.958,4.704L0,7.118l8,2.883l8-3.073
		L7.958,4.704L7.958,4.704z"/>
</g>
<g>
	<polygon fill="#CCCCCC" points="0.375,12.396 0.375,6.521 8,9.063 15.625,6.521 15.625,12.396 8,14.938 	"/>
	<path fill="#FFFFFF" d="M15.25,7.041v5.085L8,14.542l-7.25-2.416V7.041l7.013,2.338L8,9.458l0.237-0.079L15.25,7.041 M16,6L8,8.667
		L0,6v6.667l8,2.666l8-2.666V6L16,6z"/>
</g>
<line fill="none" stroke="#FFFFFF" stroke-width="0.75" stroke-miterlimit="10" x1="8" y1="8.834" x2="8" y2="15.06"/>
<g>
	<path fill="#007D7D" d="M7.132,8.388c0.248-1.025,0.681-3.426-0.227-4.932C6.261,2.39,5.15,1.826,3.692,1.826
		c-1.151,0-2.238,0.342-2.759,0.535L0.49,1.564c0.558-0.373,1.984-1.189,3.774-1.189c1.333,0,2.616,0.448,3.814,1.332
		c2.64,1.946,2.009,5.657,1.773,6.681H7.132z"/>
	<path fill="#FFFFFF" d="M4.265,0.75c1.251,0,2.459,0.423,3.592,1.258c2.255,1.663,1.932,4.763,1.692,6.004H7.603
		C7.854,6.785,8.09,4.696,7.226,3.262C6.511,2.077,5.289,1.451,3.692,1.451c-1.012,0-1.977,0.251-2.585,0.452L0.989,1.69
		C1.629,1.309,2.815,0.75,4.265,0.75 M4.265,0C1.785,0,0,1.454,0,1.454l0.765,1.377c0,0,1.42-0.63,2.927-0.63
		c1.084,0,2.214,0.326,2.892,1.448c1.081,1.793,0.06,5.113,0.06,5.113h3.501c0,0,1.479-4.909-1.843-7.358
		C6.875,0.353,5.485,0,4.265,0L4.265,0z"/>
</g>
<g>
	<polygon fill="#007D7D" points="5.332,8.145 7.292,8.157 11.114,8.157 8.086,11.28 	"/>
	<path fill="#FFFFFF" d="M6.165,8.525l1.13,0.007h2.353h0.581L8.1,10.728L6.165,8.525 M4.498,7.764l3.574,4.069L12,7.782H9.647
		H7.295L4.498,7.764L4.498,7.764z"/>
</g>
</svg>
